# xmcd
#
# Track frame offsets: 
#        150
#        15803
#        25437
#        40696
#        55594
#        66075
#        81473
#        95096
#        110237
#        124064
#        137162
#        154898
#        167625
#        180238
#        192362
#        204451
#
# Disc length: 2882 seconds
#
# Revision: 0
# Processed by: cddbd v1.5.2PL0 Copyright (c) Steve Scherf et al.
# Submitted via: ExactAudioCopy v1.3
#
DISCID=d60b4010
DTITLE=Susan McCann - susan McCann. You Gave Me Love
DYEAR=1900
DGENRE=Folk
TTITLE0=Child Support
TTITLE1=Heavens Gonna Be A Blast
TTITLE2=Everythings Beautiful In Its Own Way
TTITLE3=Why Me Lord
TTITLE4=Heavens Just A Sin Away
TTITLE5=It's No Secret
TTITLE6=How Great Thou Art
TTITLE7=Patches In Heaven
TTITLE8=You Gave Me Love
TTITLE9=Just A Closer Walk With Thee
TTITLE10=More Precious Than Ever
TTITLE11=If The Whole World Stopped Loving
TTITLE12=The Old Rugged Cross
TTITLE13=Dear God
TTITLE14=Amazing Grace
TTITLE15=Never Ending Song Of Love
EXTD=
EXTT0=
EXTT1=
EXTT2=
EXTT3=
EXTT4=
EXTT5=
EXTT6=
EXTT7=
EXTT8=
EXTT9=
EXTT10=
EXTT11=
EXTT12=
EXTT13=
EXTT14=
EXTT15=
PLAYORDER=
